<svg width="830" height="803" xmlns="http://www.w3.org/2000/svg" xmlns:xlink="http://www.w3.org/1999/xlink" xml:space="preserve" overflow="hidden"><g transform="translate(-774 -1232)"><g><path d="M776 1636C776 1416.19 960.682 1238 1188.5 1238 1416.32 1238 1601 1416.19 1601 1636 1601 1855.81 1416.32 2034 1188.5 2034 960.682 2034 776 1855.81 776 1636ZM833.415 1636C833.415 1824.1 992.392 1976.58 1188.5 1976.58 1384.61 1976.58 1543.58 1824.1 1543.58 1636 1543.58 1447.9 1384.61 1295.42 1188.5 1295.42 992.392 1295.42 833.415 1447.9 833.415 1636Z" stroke="#000000" stroke-width="2.29167" stroke-linecap="butt" stroke-linejoin="miter" stroke-miterlimit="8" stroke-opacity="1" fill="none" fill-rule="evenodd"/><text fill="#FFFFFF" fill-opacity="1" font-family="Calibri,Calibri_MSFontService,sans-serif" font-style="normal" font-variant="normal" font-weight="700" font-stretch="normal" font-size="183" text-anchor="start" direction="ltr" writing-mode="lr-tb" unicode-bidi="normal" text-decoration="none" transform="matrix(1 0 0 1 1033.47 1587)">Win</text><text fill="#FFFFFF" fill-opacity="1" font-family="Calibri,Calibri_MSFontService,sans-serif" font-style="normal" font-variant="normal" font-weight="700" font-stretch="normal" font-size="183" text-anchor="start" direction="ltr" writing-mode="lr-tb" unicode-bidi="normal" text-decoration="none" transform="matrix(1 0 0 1 978.472 1807)">$1.00</text></g></g></svg>